<svg class="brandmark" width="74" viewBox="0 0 74 64" fill="none" xmlns="http://www.w3.org/2000/svg" alt="A monogram of my initials—JS—set in Bradley Initials by David Jonathan Ross. The font is a set of ornate drop caps designed as a companion to Bradley, a 'fairytale blackletter.'">
  <title>Jonathan Stephens' Brandmark</title>
  <path class="background" fill="#0b0b0b" d="M1.53607 1.53601H72V62.272H1.53607V1.53601Z"/>
  <path class="border" fill="#0b0b0b" fill-rule="evenodd" clip-rule="evenodd" d="M73.2441 0C73.4148 0 73.5 0.0852865 73.5 0.255859V63.5518C73.5 63.7224 73.4148 63.8076 73.2441 63.8076H0.255859C0.0853069 63.8076 0 63.7224 0 63.5518V0.255859C4.70228e-05 0.0853435 0.0853538 5.69967e-05 0.255859 0L73.2441 0ZM0.511719 63.2959H72.9883V0.511719H0.511719V63.2959Z"/>
  <path class="letter jota" fill="#FBF8EF" d="M14.0161 60.16C11.2854 60.16 8.93874 59.6267 6.97607 58.56C5.05607 57.536 4.09607 56.064 4.09607 54.144C4.09607 53.2907 4.35207 52.608 4.86407 52.096C5.37607 51.584 5.93074 51.328 6.52807 51.328C7.2534 51.328 7.8294 51.5413 8.25607 51.968C8.7254 52.4373 9.2374 53.0987 9.79207 53.952C10.4747 55.0187 11.1361 55.8293 11.7761 56.384C12.4587 56.9813 13.3547 57.28 14.4641 57.28C17.1094 57.28 18.4321 54.592 18.4321 49.216V18.112C20.4801 17.472 22.2934 16.5333 23.8721 15.296C25.4934 14.0587 26.7734 12.5653 27.7121 10.816V47.68C27.7121 50.24 27.0507 52.4587 25.7281 54.336C24.4054 56.256 22.6774 57.7067 20.5441 58.688C18.4534 59.6693 16.2774 60.16 14.0161 60.16ZM4.22407 16.768C4.22407 15.0613 4.7574 13.3973 5.82407 11.776C6.9334 10.112 8.36274 8.768 10.1121 7.744C11.9041 6.72 13.7814 6.208 15.7441 6.208C16.8961 6.208 18.4107 6.37867 20.2881 6.72001C21.8667 7.01867 23.1041 7.168 24.0001 7.168C25.4934 7.168 26.6027 6.72 27.3281 5.82401L27.6481 6.016C26.8801 8.96 25.4507 11.4347 23.3601 13.44C21.2694 15.4027 18.9227 16.384 16.3201 16.384C15.2107 16.384 13.9094 16.1067 12.4161 15.552C11.2214 15.1253 10.3254 14.912 9.72807 14.912C8.96007 14.912 8.36274 15.104 7.93607 15.488C7.55207 15.8293 7.36007 16.2347 7.36007 16.704C7.36007 17.1307 7.48807 17.472 7.74407 17.728C8.04274 17.9413 8.4694 18.1973 9.02407 18.496C9.70674 18.8373 10.2187 19.2 10.5601 19.584C10.9014 19.9253 11.0721 20.416 11.0721 21.056C11.0721 21.696 10.8587 22.2507 10.4321 22.72C10.0481 23.1467 9.53607 23.36 8.89607 23.36C8.17074 23.36 7.4454 23.0827 6.72007 22.528C5.99474 21.9307 5.3974 21.1413 4.92807 20.16C4.45874 19.136 4.22407 18.0053 4.22407 16.768Z"/>
  <path class="letter ese" fill="#FBF8EF" d="M51.408 58.624C47.184 55.4667 43.152 52.6933 39.312 50.304L45.456 42.112C49.168 44.4587 52.7947 47.104 56.336 50.048C57.104 49.408 57.7014 48.6827 58.128 47.872C58.5547 47.0613 58.768 46.272 58.768 45.504C58.768 44.1387 58.128 42.9013 56.848 41.792L44.176 31.104C41.2747 28.6293 39.824 25.8987 39.824 22.912C39.824 20.224 41.04 17.536 43.472 14.848C45.904 12.16 49.4667 9.70667 54.16 7.488C56.6774 9.536 59.8347 11.648 63.632 13.824L57.872 21.44C54.5014 19.648 51.28 17.472 48.208 14.912C47.2267 15.8507 46.736 16.8107 46.736 17.792C46.736 19.1147 47.5894 20.5227 49.296 22.016L61.712 32.448C64.5707 34.8373 66 37.5467 66 40.576C66 43.136 64.8694 45.9307 62.608 48.96C60.3467 51.9893 56.6134 55.2107 51.408 58.624Z" />
  <path class="frills" fill="#FBF8EF" d="M59.272 23.552C58.9306 23.552 58.376 23.5093 57.608 23.424C57.4373 23.424 57.3306 23.3387 57.288 23.168C57.288 22.9973 57.3733 22.912 57.544 22.912C57.8426 22.912 58.12 22.9333 58.376 22.976C58.6746 23.0187 58.9733 23.04 59.272 23.04C60.936 23.04 62.536 22.6773 64.072 21.952C65.608 21.184 66.9093 20.1173 67.976 18.752C69.5973 16.6187 70.408 14.08 70.408 11.136C70.408 8.66134 69.832 6.78401 68.68 5.50401C67.5706 4.18134 66.2266 3.52001 64.648 3.52001C63.368 3.52001 62.3226 3.90401 61.512 4.67201C60.744 5.44001 60.36 6.35734 60.36 7.42401C60.36 8.27734 60.6373 9.02401 61.192 9.66401C61.7466 10.304 62.5146 10.624 63.496 10.624C64.136 10.624 64.648 10.4533 65.032 10.112C65.416 9.77067 65.608 9.36534 65.608 8.89601C65.608 8.51201 65.48 8.21334 65.224 8.00001C64.968 7.78667 64.584 7.68001 64.072 7.68001C63.9013 7.68001 63.7733 7.63734 63.688 7.55201C63.6026 7.42401 63.56 7.29601 63.56 7.16801C63.56 6.91201 63.688 6.78401 63.944 6.78401C64.6266 6.78401 65.16 6.99734 65.544 7.42401C65.928 7.80801 66.12 8.29867 66.12 8.89601C66.12 9.49334 65.9066 10.0267 65.48 10.496C65.0533 10.9227 64.392 11.136 63.496 11.136C62.3866 11.136 61.4906 10.7733 60.808 10.048C60.168 9.28001 59.848 8.40534 59.848 7.42401C59.848 6.22934 60.2746 5.20534 61.128 4.35201C62.024 3.45601 63.1973 3.00801 64.648 3.00801C66.2693 3.00801 67.6773 3.60534 68.872 4.80001C68.872 4.84267 68.8933 4.86401 68.936 4.86401C69.1066 4.94934 69.2346 4.99201 69.32 4.99201C69.576 4.99201 69.7893 4.88534 69.96 4.67201C70.1733 4.45868 70.28 4.26668 70.28 4.09601C70.28 3.92534 70.216 3.79734 70.088 3.71201C70.0026 3.62667 69.9173 3.54134 69.832 3.45601C69.7466 3.28534 69.704 3.17867 69.704 3.13601C69.704 2.96534 69.7893 2.85867 69.96 2.81601C70.1306 2.73067 70.3013 2.77334 70.472 2.94401C70.6853 3.20001 70.792 3.58401 70.792 4.09601C70.792 4.39467 70.6426 4.69334 70.344 4.99201C70.0453 5.24801 69.704 5.37601 69.32 5.37601C70.3866 6.86934 70.92 8.78934 70.92 11.136C70.92 14.2933 70.0666 16.96 68.36 19.136C67.2933 20.544 65.9493 21.632 64.328 22.4C62.7493 23.168 61.064 23.552 59.272 23.552ZM34.376 54.592C34.376 52.8853 34.824 51.4133 35.72 50.176C36.616 48.896 37.8106 48 39.304 47.488C39.432 47.4453 39.5173 47.488 39.56 47.616C39.6026 47.744 39.56 47.8293 39.432 47.872C38.024 48.384 36.9146 49.2373 36.104 50.432C35.2933 51.6267 34.888 53.0133 34.888 54.592C34.888 56.384 35.336 57.856 36.232 59.008C37.1706 60.16 38.408 60.736 39.944 60.736C40.968 60.736 41.8426 60.3947 42.568 59.712C43.2933 59.0293 43.656 58.176 43.656 57.152C43.656 56.256 43.4 55.5093 42.888 54.912C42.376 54.3147 41.6933 54.016 40.84 54.016C40.2426 54.016 39.7093 54.208 39.24 54.592C38.8133 54.976 38.6 55.4453 38.6 56C38.6 56.3413 38.728 56.5973 38.984 56.768C39.2826 56.9813 39.6453 57.088 40.072 57.088C40.2426 57.088 40.3706 57.1307 40.456 57.216C40.5413 57.344 40.584 57.472 40.584 57.6C40.584 57.856 40.456 57.984 40.2 57.984C39.6026 57.984 39.0906 57.792 38.664 57.408C38.28 57.024 38.088 56.5547 38.088 56C38.088 55.3173 38.344 54.72 38.856 54.208C39.4106 53.7387 40.072 53.504 40.84 53.504C41.8213 53.504 42.6106 53.8453 43.208 54.528C43.848 55.2533 44.168 56.128 44.168 57.152C44.168 58.304 43.7626 59.264 42.952 60.032C42.1413 60.8427 41.1386 61.248 39.944 61.248C38.3226 61.248 36.9786 60.6293 35.912 59.392C34.888 58.1547 34.376 56.5547 34.376 54.592ZM34.376 30.144C34.376 29.1627 34.6533 28.3733 35.208 27.776C35.7626 27.136 36.4666 26.816 37.32 26.816C38.1306 26.816 38.7706 27.0507 39.24 27.52C39.7093 27.9893 39.944 28.608 39.944 29.376C39.944 30.016 39.7733 30.528 39.432 30.912C39.1333 31.2533 38.7706 31.424 38.344 31.424C37.4906 31.424 37 30.9973 36.872 30.144V30.08C36.872 29.824 37 29.696 37.256 29.696C37.5546 29.696 37.7253 29.8453 37.768 30.144C37.768 30.3147 37.8106 30.4853 37.896 30.656C37.9813 30.8267 38.1306 30.912 38.344 30.912C38.6853 30.912 38.9413 30.7627 39.112 30.464C39.3253 30.1227 39.432 29.76 39.432 29.376C39.432 28.7787 39.2186 28.288 38.792 27.904C38.408 27.52 37.9173 27.328 37.32 27.328C36.5946 27.328 35.9973 27.6053 35.528 28.16C35.1013 28.672 34.888 29.3333 34.888 30.144C34.888 31.296 35.3146 32.2133 36.168 32.896C37.0213 33.5787 38.088 33.92 39.368 33.92C40.6906 33.92 41.8853 33.4933 42.952 32.64L43.08 32.576C43.208 32.576 43.2933 32.6613 43.336 32.832C43.4213 32.96 43.4213 33.0667 43.336 33.152C42.1413 34.0053 40.8186 34.432 39.368 34.432C37.9173 34.432 36.7226 34.0267 35.784 33.216C34.8453 32.4053 34.376 31.3813 34.376 30.144ZM34.632 24.64C34.632 24.384 34.696 24.1707 34.824 24C34.952 23.7867 35.144 23.6587 35.4 23.616H35.528C35.7413 23.616 35.8693 23.7653 35.912 24.064C35.9973 24.32 35.912 24.4693 35.656 24.512C35.5706 24.5547 35.464 24.576 35.336 24.576C35.2506 24.576 35.1866 24.5973 35.144 24.64C35.144 24.8533 35.2293 25.024 35.4 25.152C35.5706 25.28 35.7626 25.344 35.976 25.344C36.2746 25.344 36.5306 25.216 36.744 24.96C36.9573 24.6613 37.064 24.3413 37.064 24C37.064 23.7867 37 23.552 36.872 23.296C36.7866 22.9973 36.6586 22.784 36.488 22.656C36.36 22.5707 36.3386 22.464 36.424 22.336C36.552 22.208 36.6586 22.1867 36.744 22.272C37.2986 22.7413 37.576 23.3173 37.576 24C37.576 24.5547 37.4266 25.0027 37.128 25.344C36.8293 25.6853 36.4453 25.856 35.976 25.856C35.592 25.856 35.272 25.728 35.016 25.472C34.76 25.216 34.632 24.9387 34.632 24.64ZM34.696 41.472C34.696 39.6373 35.2933 38.1867 36.488 37.12C37.7253 36.0533 39.432 35.52 41.608 35.52C42.76 35.52 43.9546 35.6907 45.192 36.032C45.3626 36.1173 45.4266 36.2453 45.384 36.416C45.3413 36.544 45.2346 36.5867 45.064 36.544C43.9546 36.2027 42.8026 36.032 41.608 36.032C39.6453 36.032 38.088 36.5227 36.936 37.504C35.784 38.4853 35.208 39.808 35.208 41.472C35.208 42.4533 35.4853 43.2853 36.04 43.968C36.6373 44.6507 37.384 44.992 38.28 44.992C38.92 44.992 39.4746 44.7787 39.944 44.352C40.4133 43.8827 40.648 43.2853 40.648 42.56C40.648 42.0053 40.52 41.536 40.264 41.152C40.0506 40.7253 39.7093 40.512 39.24 40.512C38.984 40.512 38.7706 40.6613 38.6 40.96C38.472 41.2587 38.408 41.6213 38.408 42.048C38.408 42.304 38.28 42.432 38.024 42.432C37.896 42.432 37.768 42.3893 37.64 42.304C37.5546 42.2187 37.512 42.0907 37.512 41.92C37.512 41.3227 37.6613 40.8533 37.96 40.512C38.3013 40.1707 38.728 40 39.24 40C39.752 40 40.2 40.2347 40.584 40.704C40.968 41.1307 41.16 41.7493 41.16 42.56C41.16 43.456 40.8826 44.1813 40.328 44.736C39.7733 45.248 39.0906 45.504 38.28 45.504C37.2986 45.504 36.4453 45.12 35.72 44.352C35.0373 43.584 34.696 42.624 34.696 41.472ZM34.76 12.288C34.76 9.64267 35.3786 7.40267 36.616 5.56801C37.896 3.73334 39.5173 2.81601 41.48 2.81601C42.8453 2.81601 43.976 3.26401 44.872 4.16001C45.8106 5.05601 46.28 6.18667 46.28 7.55201C46.28 8.74667 45.9173 9.74934 45.192 10.56C44.5093 11.328 43.6133 11.712 42.504 11.712C41.5226 11.712 40.7333 11.4347 40.136 10.88C39.5386 10.3253 39.24 9.66401 39.24 8.89601C39.24 8.21334 39.4533 7.65867 39.88 7.23201C40.3066 6.80534 40.84 6.59201 41.48 6.59201C41.6506 6.59201 41.7786 6.65601 41.864 6.78401C41.9493 6.86934 41.992 6.97601 41.992 7.10401C41.992 7.36001 41.864 7.48801 41.608 7.48801C41.0533 7.48801 40.6053 7.63734 40.264 7.93601C39.9226 8.19201 39.752 8.51201 39.752 8.89601C39.752 9.53601 40.008 10.0907 40.52 10.56C41.0746 10.9867 41.736 11.2 42.504 11.2C43.4426 11.2 44.2106 10.8587 44.808 10.176C45.448 9.45067 45.768 8.57601 45.768 7.55201C45.768 6.31467 45.3626 5.31201 44.552 4.54401C43.7413 3.73334 42.7173 3.32801 41.48 3.32801C39.6453 3.32801 38.152 4.22401 37 6.01601C35.848 7.76534 35.272 9.85601 35.272 12.288C35.272 14.08 35.592 15.7867 36.232 17.408C36.872 19.0293 37.6826 20.352 38.664 21.376C38.792 21.5467 38.792 21.696 38.664 21.824C38.536 21.9093 38.408 21.888 38.28 21.76C37.2133 20.6507 36.36 19.264 35.72 17.6C35.08 15.936 34.76 14.1653 34.76 12.288ZM35.016 46.784C35.016 46.6133 35.1013 46.528 35.272 46.528C35.4426 46.528 35.528 46.6133 35.528 46.784C35.528 46.8693 35.528 46.9333 35.528 46.976C35.5706 47.0187 35.592 47.04 35.592 47.04V46.784C35.592 46.6133 35.6773 46.528 35.848 46.528C36.0186 46.528 36.104 46.6133 36.104 46.784C36.104 47.296 35.9333 47.552 35.592 47.552C35.4213 47.552 35.272 47.488 35.144 47.36C35.0586 47.1893 35.016 46.9973 35.016 46.784ZM35.464 3.00801C35.592 3.00801 35.6773 3.09334 35.72 3.26401C35.7626 3.39201 35.72 3.47734 35.592 3.52001C35.464 3.56267 35.4 3.64801 35.4 3.77601C35.4 3.86134 35.4426 3.92534 35.528 3.96801C35.6986 4.01067 35.7626 4.11734 35.72 4.28801C35.6773 4.45867 35.5706 4.52267 35.4 4.48001C35.016 4.43734 34.824 4.22401 34.824 3.84001C34.824 3.66934 34.8666 3.49867 34.952 3.32801C35.0373 3.15734 35.1653 3.05067 35.336 3.00801H35.464ZM37.96 14.464C38.3866 13.2693 39.112 12.672 40.136 12.672C40.52 12.672 40.84 12.8 41.096 13.056C41.352 13.312 41.48 13.632 41.48 14.016C41.48 14.4853 41.288 14.848 40.904 15.104C40.8613 15.1467 40.7973 15.168 40.712 15.168C40.4986 15.168 40.3493 15.0613 40.264 14.848C40.1786 14.6347 40.2213 14.464 40.392 14.336C40.5626 14.208 40.648 14.016 40.648 13.76C40.648 13.376 40.4773 13.184 40.136 13.184C39.4106 13.184 38.856 13.696 38.472 14.72C38.3013 15.1893 38.216 15.7653 38.216 16.448C38.216 17.472 38.4506 18.4533 38.92 19.392C39.0053 19.52 38.984 19.6267 38.856 19.712C38.728 19.7973 38.6213 19.776 38.536 19.648C37.9813 18.7093 37.704 17.6 37.704 16.32C37.704 15.5947 37.7893 14.976 37.96 14.464ZM43.656 40.256C44.1253 39.616 44.872 39.296 45.896 39.296C46.5786 39.296 47.24 39.424 47.88 39.68C48.8613 40.1067 49.7573 40.7467 50.568 41.6C51.4213 42.4533 52.0826 43.4987 52.552 44.736C52.6373 44.864 52.5946 44.9707 52.424 45.056C52.296 45.0987 52.2106 45.0347 52.168 44.864C51.6986 43.712 51.0586 42.752 50.248 41.984C49.48 41.1733 48.648 40.576 47.752 40.192C47.112 39.936 46.4933 39.808 45.896 39.808C45.128 39.808 44.5093 40.0853 44.04 40.64C43.9973 40.6827 43.9333 40.704 43.848 40.704C43.7626 40.704 43.6773 40.6613 43.592 40.576C43.5493 40.448 43.5706 40.3413 43.656 40.256ZM45.448 61.248C45.32 61.2053 45.256 61.0987 45.256 60.928C45.2986 60.8 45.4053 60.736 45.576 60.736C46.1306 60.8213 46.6426 60.6933 47.112 60.352C47.5813 60.0533 47.816 59.6693 47.816 59.2C47.816 58.5173 47.4746 58.048 46.792 57.792C46.6213 57.7493 46.5573 57.6213 46.6 57.408C46.6426 57.2373 46.7493 57.1947 46.92 57.28C47.3466 57.4507 47.688 57.7067 47.944 58.048C48.2 58.432 48.328 58.816 48.328 59.2C48.328 59.9253 48.0293 60.4587 47.432 60.8C46.8773 61.184 46.216 61.3333 45.448 61.248ZM46.28 36.352C46.3226 36.3093 46.3866 36.288 46.472 36.288C46.5573 36.288 46.6426 36.3307 46.728 36.416C46.8133 36.5013 46.8346 36.608 46.792 36.736C46.7066 36.8213 46.6853 36.9067 46.728 36.992C46.856 37.0773 46.984 37.056 47.112 36.928C47.24 36.8427 47.3466 36.864 47.432 36.992C47.5173 37.0773 47.496 37.184 47.368 37.312C47.24 37.44 47.0693 37.5253 46.856 37.568C46.6853 37.6107 46.5146 37.5467 46.344 37.376C46.088 37.0773 46.0666 36.736 46.28 36.352ZM46.856 4.60801C46.856 4.05334 47.0266 3.58401 47.368 3.20001C47.7093 2.81601 48.136 2.62401 48.648 2.62401C49.2026 2.62401 49.6293 2.79467 49.928 3.13601C50.2266 3.43467 50.376 3.86134 50.376 4.41601C50.376 4.67201 50.248 4.80001 49.992 4.80001C49.864 4.80001 49.736 4.75734 49.608 4.67201C49.5226 4.58667 49.48 4.45867 49.48 4.28801C49.48 3.94667 49.3946 3.66934 49.224 3.45601C49.0533 3.24267 48.8613 3.13601 48.648 3.13601C48.264 3.13601 47.944 3.28534 47.688 3.58401C47.4746 3.88267 47.368 4.22401 47.368 4.60801C47.368 5.16267 47.6026 5.61067 48.072 5.95201C48.584 6.25067 49.1813 6.40001 49.864 6.40001C50.632 6.40001 51.5066 6.10134 52.488 5.50401C53.4693 4.90667 54.28 4.13867 54.92 3.20001C55.0053 3.07201 55.112 3.05067 55.24 3.13601C55.368 3.22134 55.3893 3.32801 55.304 3.45601C54.5786 4.48001 53.704 5.31201 52.68 5.95201C51.6986 6.59201 50.76 6.91201 49.864 6.91201C48.968 6.91201 48.2426 6.67734 47.688 6.20801C47.1333 5.73867 46.856 5.20534 46.856 4.60801ZM48.584 38.144C48.328 38.016 48.2 37.8667 48.2 37.696C48.2 37.568 48.2426 37.4827 48.328 37.44C48.4133 37.3547 48.5413 37.3333 48.712 37.376C50.0773 37.888 51.4426 38.9547 52.808 40.576C54.216 42.1973 55.0693 44.4373 55.368 47.296V47.36C55.368 47.5307 55.2826 47.616 55.112 47.616C54.9413 47.5733 54.856 47.4667 54.856 47.296C54.5573 44.6507 53.768 42.6027 52.488 41.152C51.2506 39.6587 49.9493 38.656 48.584 38.144ZM49.8 18.432C49.672 18.2613 49.672 18.1333 49.8 18.048C49.9706 17.9627 50.0986 18.0053 50.184 18.176C51.336 19.712 52.5946 20.8427 53.96 21.568C54.1306 21.6533 54.1733 21.7813 54.088 21.952C54.0026 22.1227 53.8746 22.1653 53.704 22.08C52.0826 21.0987 50.7813 19.8827 49.8 18.432ZM50.312 60.864C50.9093 60.352 51.656 60.096 52.552 60.096C53.0213 60.096 53.448 60.1173 53.832 60.16C54.2586 60.2453 54.6426 60.288 54.984 60.288C55.3253 60.288 55.6026 60.2027 55.816 60.032C56.072 59.904 56.2 59.6693 56.2 59.328C56.2 59.1147 56.136 58.9227 56.008 58.752C55.88 58.5813 55.7093 58.496 55.496 58.496C55.2826 58.496 55.112 58.56 54.984 58.688C54.8986 58.8587 54.8773 59.072 54.92 59.328V59.392C54.92 59.5627 54.8346 59.6267 54.664 59.584C54.4933 59.584 54.408 59.4987 54.408 59.328V59.136C54.408 58.368 54.7706 57.984 55.496 57.984C55.7946 57.984 56.072 58.112 56.328 58.368C56.584 58.624 56.712 58.944 56.712 59.328C56.712 59.7973 56.5413 60.16 56.2 60.416C55.9013 60.672 55.496 60.8 54.984 60.8C54.6426 60.8 54.2586 60.7573 53.832 60.672C53.448 60.6293 53.0213 60.608 52.552 60.608C51.6986 60.608 51.0373 60.8213 50.568 61.248C50.4826 61.3333 50.376 61.312 50.248 61.184C50.1626 61.056 50.184 60.9493 50.312 60.864ZM55.176 22.016C55.2186 21.9733 55.2826 21.952 55.368 21.952C55.4533 21.952 55.5386 21.9947 55.624 22.08C55.7093 22.1653 55.7306 22.272 55.688 22.4C55.6026 22.4853 55.5813 22.5707 55.624 22.656C55.752 22.7413 55.88 22.72 56.008 22.592C56.136 22.5067 56.2426 22.528 56.328 22.656C56.4133 22.7413 56.392 22.848 56.264 22.976C56.136 23.104 55.9653 23.1893 55.752 23.232C55.5813 23.2747 55.4106 23.2107 55.24 23.04C54.984 22.7413 54.9626 22.4 55.176 22.016ZM56.264 25.6C56.0933 25.5147 56.0506 25.3867 56.136 25.216C56.2213 25.0453 56.3493 25.0027 56.52 25.088C58.3546 26.0693 60.4666 26.56 62.856 26.56C63.0266 26.56 63.0906 26.6453 63.048 26.816C63.048 26.9867 62.984 27.072 62.856 27.072C60.424 27.072 58.2266 26.5813 56.264 25.6ZM56.648 7.23201C56.3066 6.72001 56.136 6.20801 56.136 5.69601C56.136 4.97067 56.4773 4.39467 57.16 3.96801C57.8426 3.49867 58.6746 3.22134 59.656 3.13601C59.8266 3.13601 59.912 3.22134 59.912 3.39201C59.912 3.52001 59.8266 3.60534 59.656 3.64801C58.8026 3.69067 58.0986 3.90401 57.544 4.28801C56.9893 4.62934 56.712 5.07734 56.712 5.63201C56.712 6.05867 56.8613 6.50667 57.16 6.97601L57.224 7.10401C57.224 7.23201 57.1386 7.31734 56.968 7.36001C56.84 7.40267 56.7333 7.36001 56.648 7.23201ZM58.44 58.688C58.44 56.7253 59.08 55.0613 60.36 53.696C61.6826 52.3733 63.3253 51.712 65.288 51.712C66.8666 51.712 68.168 52.2027 69.192 53.184C70.216 54.1653 70.728 55.4027 70.728 56.896C70.728 58.048 70.3866 58.9867 69.704 59.712C69.064 60.4373 68.2533 60.8 67.272 60.8C66.2906 60.8 65.4586 60.4587 64.776 59.776C64.136 59.0933 63.816 58.2613 63.816 57.28C63.816 56.4267 63.9866 55.7867 64.328 55.36C64.6693 54.9333 65.096 54.72 65.608 54.72C66.4613 54.72 66.9733 55.0827 67.144 55.808V55.936C67.144 56.192 67.016 56.32 66.76 56.32C66.504 56.32 66.3333 56.192 66.248 55.936C66.248 55.8933 66.2266 55.7653 66.184 55.552C66.1413 55.3387 65.9493 55.232 65.608 55.232C65.224 55.232 64.904 55.424 64.648 55.808C64.4346 56.2347 64.328 56.7253 64.328 57.28C64.328 58.1333 64.6053 58.8373 65.16 59.392C65.7146 59.9893 66.4186 60.288 67.272 60.288C68.1253 60.288 68.8293 59.968 69.384 59.328C69.9386 58.688 70.216 57.8773 70.216 56.896C70.216 55.5307 69.7466 54.4 68.808 53.504C67.912 52.6507 66.7386 52.224 65.288 52.224C63.5386 52.224 62.0453 52.864 60.808 54.144C59.5706 55.424 58.952 56.9387 58.952 58.688C58.952 59.4987 59.016 60.2453 59.144 60.928C59.1866 61.0987 59.144 61.184 59.016 61.184C58.888 61.2267 58.8026 61.184 58.76 61.056C58.5466 60.3733 58.44 59.584 58.44 58.688ZM60.04 59.392C60.04 58.752 60.2533 58.2187 60.68 57.792C61.1493 57.408 61.6613 57.28 62.216 57.408C62.344 57.4507 62.3866 57.536 62.344 57.664C62.3013 57.792 62.216 57.8347 62.088 57.792C61.704 57.7067 61.3413 57.8133 61 58.112C60.7013 58.4533 60.552 58.88 60.552 59.392C60.552 60.0747 60.808 60.5653 61.32 60.864C61.448 60.9493 61.4693 61.056 61.384 61.184C61.2986 61.312 61.192 61.3333 61.064 61.248C60.7653 61.0773 60.5093 60.8213 60.296 60.48C60.1253 60.1387 60.04 59.776 60.04 59.392ZM60.936 21.632C60.808 21.632 60.7226 21.568 60.68 21.44C60.68 21.2693 60.7653 21.1627 60.936 21.12C62.3013 21.0347 63.4106 20.544 64.264 19.648C65.1173 18.752 65.544 17.6 65.544 16.192C65.544 15.7227 65.5226 15.3813 65.48 15.168V15.104C65.48 14.976 65.544 14.912 65.672 14.912C65.8426 14.912 65.9493 14.9973 65.992 15.168C66.0773 15.68 66.12 16.064 66.12 16.32C66.12 17.7707 65.6293 18.9867 64.648 19.968C63.6666 20.9493 62.4293 21.504 60.936 21.632ZM63.176 31.104C63.0053 31.0187 62.9413 30.912 62.984 30.784C63.0266 30.6133 63.1333 30.5493 63.304 30.592C64.9253 31.0613 66.3333 31.8933 67.528 33.088C68.7653 34.2827 69.6826 35.6267 70.28 37.12C70.92 38.5707 71.24 39.9147 71.24 41.152C71.24 42.1333 71.0266 42.9013 70.6 43.456C70.216 44.0107 69.6613 44.288 68.936 44.288C68.424 44.288 68.0186 44.1173 67.72 43.776C67.4213 43.392 67.272 42.9653 67.272 42.496C67.272 41.6 67.464 40.9813 67.848 40.64C67.8906 40.5973 67.976 40.576 68.104 40.576C68.3173 40.576 68.4666 40.6827 68.552 40.896C68.68 41.0667 68.6586 41.2373 68.488 41.408C68.0186 41.792 67.784 42.1547 67.784 42.496C67.784 42.8373 67.8693 43.136 68.04 43.392C68.2533 43.648 68.552 43.776 68.936 43.776C69.5333 43.776 69.9813 43.52 70.28 43.008C70.5786 42.496 70.728 41.8773 70.728 41.152C70.728 40 70.408 38.72 69.768 37.312C69.1706 35.904 68.296 34.624 67.144 33.472C65.992 32.32 64.6693 31.5307 63.176 31.104ZM63.688 27.776C63.688 27.648 63.752 27.6053 63.88 27.648C64.0506 27.648 64.1146 27.7333 64.072 27.904V28.096C64.072 28.48 64.2 28.7787 64.456 28.992C64.712 29.2053 65.0533 29.312 65.48 29.312C65.9066 29.312 66.3973 29.12 66.952 28.736C67.5066 28.352 67.9546 28.16 68.296 28.16C68.552 28.16 68.8293 28.224 69.128 28.352L69.896 28.736C69.8533 27.4133 69.4266 26.3893 68.616 25.664C67.848 24.896 66.9946 24.512 66.056 24.512C65.6293 24.512 65.2453 24.6187 64.904 24.832C64.6053 25.0027 64.456 25.3013 64.456 25.728C64.456 25.8987 64.4986 26.048 64.584 26.176C64.6693 26.304 64.7973 26.368 64.968 26.368C65.224 26.368 65.3733 26.3467 65.416 26.304C65.5013 26.2187 65.5653 26.112 65.608 25.984C65.6933 25.856 65.7573 25.728 65.8 25.6C65.8426 25.5147 65.928 25.472 66.056 25.472C66.2693 25.472 66.44 25.5573 66.568 25.728C66.696 25.8987 66.696 26.0693 66.568 26.24C66.184 26.6667 65.6506 26.88 64.968 26.88C64.712 26.88 64.4773 26.7733 64.264 26.56C64.0506 26.304 63.944 26.0267 63.944 25.728C63.944 25.216 64.136 24.8107 64.52 24.512C64.9466 24.1707 65.4586 24 66.056 24C67.208 24 68.232 24.448 69.128 25.344C70.0666 26.24 70.4933 27.5413 70.408 29.248C70.408 29.3333 70.3653 29.3973 70.28 29.44C70.2373 29.4827 70.1733 29.4827 70.088 29.44L68.936 28.864C68.68 28.7787 68.5093 28.736 68.424 28.736C68.168 28.736 67.7626 28.928 67.208 29.312C66.6533 29.6533 66.0773 29.824 65.48 29.824C64.8826 29.824 64.392 29.632 64.008 29.248C63.6666 28.864 63.56 28.3733 63.688 27.776ZM65.096 51.008C64.9253 50.9653 64.84 50.88 64.84 50.752C64.8826 50.5813 64.968 50.496 65.096 50.496C66.4186 50.624 67.272 50.1973 67.656 49.216C67.7413 49.0453 67.8693 49.0027 68.04 49.088C68.2106 49.1733 68.2533 49.3013 68.168 49.472C67.656 50.624 66.632 51.136 65.096 51.008ZM65.672 47.552C65.672 47.0827 65.8213 46.6773 66.12 46.336C66.4186 45.9947 66.8453 45.824 67.4 45.824C67.7413 45.824 68.0613 45.8453 68.36 45.888C68.6586 45.9307 68.9573 45.952 69.256 45.952C69.5973 45.952 69.8533 45.9093 70.024 45.824C70.1946 45.7387 70.3226 45.568 70.408 45.312C70.4506 45.1413 70.5146 45.0773 70.6 45.12C70.728 45.12 70.8346 45.2053 70.92 45.376C71.0906 45.888 71.176 46.3787 71.176 46.848C71.176 47.616 70.9626 48.2347 70.536 48.704C70.152 49.1307 69.6826 49.344 69.128 49.344C68.9573 49.344 68.872 49.2587 68.872 49.088C68.872 48.9173 68.9573 48.832 69.128 48.832C69.5546 48.832 69.9173 48.64 70.216 48.256C70.5146 47.872 70.664 47.4027 70.664 46.848L70.6 46.08C70.3013 46.336 69.8533 46.464 69.256 46.464C68.9573 46.464 68.6586 46.4427 68.36 46.4C68.0613 46.3573 67.7413 46.336 67.4 46.336C67.016 46.336 66.7173 46.464 66.504 46.72C66.2906 46.9333 66.184 47.2107 66.184 47.552C66.184 48.1493 66.3973 48.448 66.824 48.448C66.9946 48.448 67.08 48.5333 67.08 48.704C67.08 48.8747 66.9946 48.96 66.824 48.96C66.44 48.96 66.1413 48.832 65.928 48.576C65.7573 48.2773 65.672 47.936 65.672 47.552ZM66.44 22.848C66.9946 22.2507 67.464 21.8453 67.848 21.632C68.232 21.376 68.68 21.248 69.192 21.248C69.6613 21.248 70.0453 21.3547 70.344 21.568C70.6853 21.7813 70.8773 22.1013 70.92 22.528V22.592C70.92 22.848 70.792 22.976 70.536 22.976C70.2373 22.976 70.0666 22.8267 70.024 22.528C70.024 22.4 69.9386 22.2507 69.768 22.08C69.64 21.8667 69.448 21.76 69.192 21.76C68.808 21.76 68.424 21.8667 68.04 22.08C67.6986 22.2507 67.2933 22.592 66.824 23.104C66.696 23.232 66.568 23.2533 66.44 23.168C66.3546 23.04 66.3546 22.9333 66.44 22.848ZM67.528 11.904C67.656 11.904 67.7413 11.9893 67.784 12.16C67.8266 12.288 67.784 12.3733 67.656 12.416C67.528 12.4587 67.464 12.544 67.464 12.672C67.464 12.7573 67.5066 12.8213 67.592 12.864C67.7626 12.9067 67.8266 13.0133 67.784 13.184C67.7413 13.3547 67.6346 13.4187 67.464 13.376C67.08 13.3333 66.888 13.12 66.888 12.736C66.888 12.5653 66.9306 12.3947 67.016 12.224C67.1013 12.0533 67.2293 11.9467 67.4 11.904H67.528Z"/>
  <path class="frills" fill="#FBF8EF" d="M13.376 47.232C12.224 47.232 11.264 46.8053 10.496 45.952C9.72803 45.0987 9.34403 44.032 9.34403 42.752C9.34403 41.9413 9.49336 41.1947 9.79203 40.512C10.0907 39.7867 10.5174 39.1893 11.072 38.72C11.7974 38.0373 12.672 37.5253 13.696 37.184C14.7627 36.8427 15.9147 36.6933 17.152 36.736C17.3227 36.7787 17.3867 36.8853 17.344 37.056C17.344 37.184 17.28 37.248 17.152 37.248C16 37.2053 14.912 37.3547 13.888 37.696C12.9067 37.9947 12.096 38.464 11.456 39.104C10.3894 40.0853 9.85603 41.3013 9.85603 42.752C9.85603 43.904 10.176 44.864 10.816 45.632C11.4987 46.3573 12.352 46.72 13.376 46.72C14.144 46.72 14.784 46.5067 15.296 46.08C15.8507 45.6107 16.128 45.0347 16.128 44.352C16.128 43.7973 15.9787 43.3493 15.68 43.008C15.3814 42.624 14.976 42.432 14.464 42.432C14.1227 42.432 13.824 42.5173 13.568 42.688C13.3547 42.816 13.248 43.008 13.248 43.264C13.248 43.4773 13.3974 43.6693 13.696 43.84C13.8667 43.968 13.952 44.096 13.952 44.224C13.952 44.3947 13.888 44.5227 13.76 44.608C13.632 44.6933 13.4827 44.6933 13.312 44.608C12.928 44.352 12.736 43.904 12.736 43.264C12.736 42.88 12.8854 42.56 13.184 42.304C13.5254 42.048 13.952 41.92 14.464 41.92C15.0614 41.92 15.5734 42.1547 16 42.624C16.4267 43.0507 16.64 43.6267 16.64 44.352C16.64 45.2053 16.32 45.9093 15.68 46.464C15.0827 46.976 14.3147 47.232 13.376 47.232ZM2.49603 37.184C2.45336 37.0133 2.49603 36.928 2.62403 36.928C2.75203 36.8853 2.83736 36.928 2.88003 37.056C3.00803 37.568 3.28536 37.9733 3.71203 38.272C4.13869 38.5707 4.62936 38.72 5.18403 38.72C6.37869 38.72 7.27469 37.952 7.87203 36.416C7.91469 36.2453 8.02136 36.16 8.19203 36.16C8.32003 36.16 8.42669 36.224 8.51203 36.352C8.64003 36.48 8.68269 36.6293 8.64003 36.8C8.38403 37.6107 7.91469 38.2293 7.23203 38.656C6.54936 39.04 5.86669 39.232 5.18403 39.232C4.54403 39.232 3.96803 39.04 3.45603 38.656C2.94403 38.272 2.62403 37.7813 2.49603 37.184ZM2.68803 59.584C2.68803 59.1573 2.79469 58.7733 3.00803 58.432C3.22136 58.0907 3.49869 57.856 3.84003 57.728H3.96803C4.09603 57.728 4.18136 57.792 4.22403 57.92C4.26669 58.0907 4.22403 58.1973 4.09603 58.24C3.88269 58.3253 3.66936 58.496 3.45603 58.752C3.28536 59.008 3.20003 59.2853 3.20003 59.584C3.20003 59.9253 3.28536 60.2027 3.45603 60.416C3.66936 60.672 3.94669 60.8 4.28803 60.8C4.54403 60.8 4.80003 60.736 5.05603 60.608C5.18403 60.5227 5.26936 60.544 5.31203 60.672C5.39736 60.8427 5.35469 60.9493 5.18403 60.992C4.88536 61.12 4.56536 61.184 4.22403 61.184C3.75469 61.184 3.37069 61.0347 3.07203 60.736C2.81603 60.48 2.68803 60.096 2.68803 59.584ZM2.68803 15.424C2.77336 15.296 2.88003 15.296 3.00803 15.424C3.13603 15.5093 3.15736 15.5947 3.07203 15.68C2.85869 15.936 2.75203 16.256 2.75203 16.64C2.75203 16.8533 2.77336 17.0453 2.81603 17.216C2.90136 17.3867 2.98669 17.4933 3.07203 17.536C3.24269 17.5787 3.32803 17.6853 3.32803 17.856C3.32803 18.0267 3.24269 18.0907 3.07203 18.048C2.47469 17.92 2.17603 17.5147 2.17603 16.832C2.17603 16.32 2.34669 15.8507 2.68803 15.424ZM2.81603 23.168C2.81603 22.4853 3.05069 21.8667 3.52003 21.312C3.56269 21.2693 3.62669 21.248 3.71203 21.248C3.79736 21.248 3.86136 21.312 3.90403 21.44C3.98936 21.5253 3.98936 21.6107 3.90403 21.696C3.73336 21.8667 3.58403 22.1013 3.45603 22.4C3.37069 22.6987 3.32803 22.9547 3.32803 23.168C3.32803 23.7227 3.52003 24.192 3.90403 24.576C4.28803 24.96 4.75736 25.152 5.31203 25.152C5.48269 25.152 5.67469 25.1093 5.88803 25.024C6.14403 24.9387 6.35736 24.832 6.52803 24.704L6.65603 24.64C6.78403 24.64 6.86936 24.7253 6.91203 24.896C6.99736 25.024 6.99736 25.1307 6.91203 25.216C6.40003 25.5147 5.86669 25.664 5.31203 25.664C4.62936 25.664 4.03203 25.4293 3.52003 24.96C3.05069 24.448 2.81603 23.8507 2.81603 23.168ZM2.81603 6.46401C2.81603 5.31201 3.13603 4.37334 3.77603 3.64801C4.41603 2.92267 5.22669 2.56001 6.20803 2.56001C6.89069 2.56001 7.44536 2.77334 7.87203 3.20001C8.34136 3.62667 8.57603 4.13867 8.57603 4.73601C8.57603 5.33334 8.42669 5.84534 8.12803 6.27201C7.87203 6.69867 7.46669 6.91201 6.91203 6.91201C6.74136 6.91201 6.61336 6.86934 6.52803 6.78401C6.44269 6.65601 6.40003 6.52801 6.40003 6.40001C6.40003 6.14401 6.52803 6.01601 6.78403 6.01601C7.16803 6.01601 7.46669 5.90934 7.68003 5.69601C7.93603 5.48267 8.06403 5.16267 8.06403 4.73601C8.06403 4.22401 7.87203 3.81867 7.48803 3.52001C7.14669 3.22134 6.72003 3.07201 6.20803 3.07201C5.39736 3.07201 4.71469 3.41334 4.16003 4.09601C3.60536 4.73601 3.32803 5.52534 3.32803 6.46401C3.32803 7.23201 3.52003 7.91468 3.90403 8.51201C4.28803 9.06667 4.75736 9.36534 5.31203 9.40801C5.44003 9.45067 5.48269 9.55734 5.44003 9.72801C5.44003 9.85601 5.35469 9.92001 5.18403 9.92001C4.50136 9.79201 3.92536 9.40801 3.45603 8.76801C3.02936 8.12801 2.81603 7.36001 2.81603 6.46401ZM2.88003 10.944C3.00803 10.816 3.11469 10.816 3.20003 10.944C3.32803 11.0293 3.34936 11.1147 3.26403 11.2C3.09336 11.3707 3.00803 11.6053 3.00803 11.904C3.00803 12.2027 3.07203 12.48 3.20003 12.736C3.37069 12.992 3.54136 13.1627 3.71203 13.248C3.88269 13.2907 3.94669 13.4187 3.90403 13.632C3.86136 13.8027 3.75469 13.8453 3.58403 13.76C3.28536 13.6747 3.02936 13.4613 2.81603 13.12C2.60269 12.736 2.49603 12.352 2.49603 11.968C2.49603 11.5413 2.62403 11.2 2.88003 10.944ZM3.07203 46.464C3.07203 45.0987 3.54136 43.84 4.48003 42.688C5.46136 41.4933 6.69869 40.64 8.19203 40.128C8.32003 40.0853 8.40536 40.128 8.44803 40.256C8.49069 40.384 8.44803 40.4693 8.32003 40.512C6.95469 41.024 5.82403 41.856 4.92803 43.008C4.03203 44.1173 3.58403 45.2693 3.58403 46.464C3.58403 47.4027 3.81869 48.192 4.28803 48.832C4.80003 49.4293 5.46136 49.728 6.27203 49.728C6.95469 49.728 7.50936 49.5147 7.93603 49.088C8.40536 48.6187 8.64003 48.064 8.64003 47.424C8.64003 46.8693 8.49069 46.4 8.19203 46.016C7.89336 45.632 7.48803 45.44 6.97603 45.44C6.72003 45.44 6.48536 45.5253 6.27203 45.696C6.10136 45.824 6.01603 46.016 6.01603 46.272C6.01603 46.4853 6.12269 46.592 6.33603 46.592C6.54936 46.592 6.69869 46.6773 6.78403 46.848C6.91203 46.976 6.95469 47.1253 6.91203 47.296C6.86936 47.424 6.76269 47.488 6.59203 47.488C5.86669 47.488 5.50403 47.0827 5.50403 46.272C5.50403 45.888 5.63203 45.568 5.88803 45.312C6.18669 45.056 6.54936 44.928 6.97603 44.928C7.57336 44.928 8.08536 45.1627 8.51203 45.632C8.93869 46.1013 9.15203 46.6987 9.15203 47.424C9.15203 48.2773 8.87469 48.96 8.32003 49.472C7.80803 49.984 7.12536 50.24 6.27203 50.24C5.37603 50.24 4.60803 49.8987 3.96803 49.216C3.37069 48.4907 3.07203 47.5733 3.07203 46.464ZM4.35203 36.288C4.09603 35.5627 3.96803 34.9013 3.96803 34.304C3.96803 33.3653 4.28803 32.512 4.92803 31.744C4.54403 31.1467 4.35203 30.5493 4.35203 29.952C4.35203 29.2267 4.58669 28.608 5.05603 28.096C5.52536 27.584 6.14403 27.328 6.91203 27.328C7.38136 27.328 7.78669 27.456 8.12803 27.712C8.51203 27.968 8.76803 28.288 8.89603 28.672C8.98136 28.8 8.93869 28.9067 8.76803 28.992C8.64003 29.0347 8.55469 28.9707 8.51203 28.8C8.38403 28.544 8.17069 28.3307 7.87203 28.16C7.57336 27.9467 7.25336 27.84 6.91203 27.84C6.31469 27.84 5.82403 28.0533 5.44003 28.48C5.05603 28.9067 4.86403 29.4187 4.86403 30.016C4.86403 30.6133 5.05603 31.168 5.44003 31.68C5.48269 31.7227 5.50403 31.7867 5.50403 31.872C5.50403 31.9147 5.48269 31.9573 5.44003 32C4.84269 32.6827 4.54403 33.4933 4.54403 34.432C4.54403 34.9013 4.58669 35.2853 4.67203 35.584C5.39736 34.816 6.59203 34.2827 8.25603 33.984C9.06669 33.8987 9.74936 33.5787 10.304 33.024C10.8587 32.4693 11.136 31.9147 11.136 31.36C11.136 30.976 11.008 30.6347 10.752 30.336C10.5387 29.9947 10.2187 29.824 9.79203 29.824C9.53603 29.824 9.30136 29.888 9.08803 30.016C8.87469 30.144 8.76803 30.336 8.76803 30.592C8.76803 30.8053 8.89603 30.912 9.15203 30.912C9.32269 30.912 9.45069 30.976 9.53603 31.104C9.62136 31.1893 9.66403 31.296 9.66403 31.424C9.66403 31.68 9.53603 31.808 9.28003 31.808C8.98136 31.808 8.72536 31.7013 8.51203 31.488C8.34136 31.232 8.25603 30.9333 8.25603 30.592C8.25603 30.208 8.38403 29.9093 8.64003 29.696C8.93869 29.44 9.32269 29.312 9.79203 29.312C10.304 29.312 10.7307 29.5253 11.072 29.952C11.456 30.336 11.648 30.8053 11.648 31.36C11.648 32.2133 11.328 32.9173 10.688 33.472C10.0907 33.984 9.28003 34.3253 8.25603 34.496C7.44536 34.5813 6.72003 34.816 6.08003 35.2C5.44003 35.584 5.03469 35.968 4.86403 36.352C4.77869 36.5227 4.67203 36.608 4.54403 36.608C4.45869 36.5653 4.39469 36.4587 4.35203 36.288ZM9.66403 3.71201C9.66403 3.37067 9.83469 3.07201 10.176 2.81601C10.56 2.56001 10.9867 2.43201 11.456 2.43201C11.968 2.43201 12.3947 2.58134 12.736 2.88001C13.12 3.13601 13.312 3.49867 13.312 3.96801C13.312 4.73601 13.056 5.16267 12.544 5.24801H12.416C12.2027 5.24801 12.0534 5.12001 11.968 4.86401C11.9254 4.56534 12.032 4.39467 12.288 4.35201C12.6294 4.35201 12.8 4.22401 12.8 3.96801C12.8 3.66934 12.672 3.43467 12.416 3.26401C12.2027 3.05067 11.8827 2.94401 11.456 2.94401C11.1574 2.94401 10.8587 3.02934 10.56 3.20001C10.304 3.37067 10.1334 3.56267 10.048 3.77601C10.0054 3.90401 9.92003 3.96801 9.79203 3.96801C9.70669 3.92534 9.66403 3.84001 9.66403 3.71201ZM9.79203 49.088C10.5174 48.704 11.3494 48.512 12.288 48.512C13.568 48.512 14.6134 48.8747 15.424 49.6C16.2347 50.2827 16.64 51.136 16.64 52.16C16.64 53.056 16.384 53.7813 15.872 54.336C15.4027 54.8907 14.784 55.168 14.016 55.168C13.4187 55.168 12.928 54.976 12.544 54.592C12.16 54.2507 11.968 53.824 11.968 53.312C11.968 52.928 12.096 52.5867 12.352 52.288C12.6507 52.032 13.0347 51.904 13.504 51.904C13.6747 51.904 13.76 51.9893 13.76 52.16C13.76 52.3307 13.6747 52.416 13.504 52.416C13.2054 52.416 12.9494 52.5013 12.736 52.672C12.5654 52.8427 12.48 53.056 12.48 53.312C12.48 53.696 12.6294 54.016 12.928 54.272C13.2267 54.528 13.5894 54.656 14.016 54.656C14.6134 54.656 15.104 54.4 15.488 53.888C15.9147 53.4187 16.128 52.8427 16.128 52.16C16.128 51.2213 15.744 50.4747 14.976 49.92C14.2507 49.3227 13.3547 49.024 12.288 49.024C11.4774 49.024 10.7307 49.1733 10.048 49.472C9.87736 49.5147 9.74936 49.4933 9.66403 49.408C9.62136 49.28 9.66403 49.1733 9.79203 49.088ZM9.85603 25.024C10.7947 25.0667 11.5414 24.8107 12.096 24.256C12.6934 23.6587 12.992 22.848 12.992 21.824C12.992 21.184 12.864 20.6507 12.608 20.224C12.48 20.0533 12.48 19.9253 12.608 19.84C12.7787 19.7547 12.9067 19.7973 12.992 19.968C13.3334 20.4373 13.504 21.056 13.504 21.824C13.504 22.9333 13.1627 23.8933 12.48 24.704C11.84 25.5147 11.0507 25.92 10.112 25.92C9.89869 25.92 9.72803 25.856 9.60003 25.728C9.51469 25.5573 9.49336 25.408 9.53603 25.28C9.57869 25.1093 9.68536 25.024 9.85603 25.024ZM11.008 16.896C11.4347 16.896 11.8187 16.9813 12.16 17.152C13.184 17.536 13.9947 18.2187 14.592 19.2C15.232 20.1387 15.552 21.2053 15.552 22.4C15.552 23.5947 15.168 24.704 14.4 25.728C13.632 26.7093 12.6934 27.3707 11.584 27.712C11.456 27.7547 11.3707 27.712 11.328 27.584C11.2854 27.456 11.328 27.3707 11.456 27.328C12.5227 26.9867 13.376 26.3467 14.016 25.408C14.6987 24.4693 15.04 23.4667 15.04 22.4C15.04 21.2907 14.7627 20.3093 14.208 19.456C13.6534 18.6027 12.928 18.0053 12.032 17.664L11.776 17.6C11.6907 17.6 11.456 17.664 11.072 17.792H10.944C10.7307 17.792 10.5814 17.664 10.496 17.408C10.4534 17.1093 10.56 16.9387 10.816 16.896H11.008ZM11.136 36.032C10.9654 36.032 10.88 35.9467 10.88 35.776C10.9227 35.6053 11.008 35.52 11.136 35.52C12.7147 35.52 13.9307 35.1573 14.784 34.432C15.68 33.664 16.128 32.6613 16.128 31.424C16.128 30.1013 15.4454 29.2693 14.08 28.928C13.824 28.8427 13.696 28.6933 13.696 28.48C13.696 28.352 13.7387 28.2453 13.824 28.16C13.9094 28.032 14.0374 27.9893 14.208 28.032C14.9334 28.2027 15.5094 28.6507 15.936 29.376C16.4054 30.0587 16.64 30.7413 16.64 31.424C16.64 32.7893 16.1494 33.8987 15.168 34.752C14.2294 35.6053 12.8854 36.032 11.136 36.032ZM14.912 4.35201C14.9974 3.88267 15.232 3.49867 15.616 3.20001C16.0427 2.90134 16.5334 2.75201 17.088 2.75201C17.728 2.75201 18.2614 2.94401 18.688 3.32801C19.1147 3.71201 19.3067 4.20267 19.264 4.80001C19.264 4.97067 19.1574 5.03467 18.944 4.99201C18.7734 4.94934 18.7094 4.84267 18.752 4.67201C18.7947 4.24534 18.6667 3.90401 18.368 3.64801C18.0694 3.39201 17.6427 3.26401 17.088 3.26401C16.6614 3.26401 16.2774 3.37067 15.936 3.58401C15.5947 3.79734 15.3814 4.09601 15.296 4.48001C15.2534 4.60801 15.168 4.67201 15.04 4.67201C14.912 4.62934 14.8694 4.52267 14.912 4.35201ZM15.68 26.752C15.6374 26.496 15.616 26.1333 15.616 25.664C15.616 24.2987 16.128 23.4453 17.152 23.104H17.28C17.408 23.104 17.4934 23.1893 17.536 23.36C17.5787 23.488 17.536 23.5733 17.408 23.616C16.5547 23.9147 16.128 24.6187 16.128 25.728C16.128 26.112 16.1494 26.4107 16.192 26.624C16.192 26.7947 16.1067 26.9013 15.936 26.944C15.808 26.944 15.7227 26.88 15.68 26.752ZM20.608 4.35201C20.6934 3.96801 20.9067 3.62667 21.248 3.32801C21.5894 3.02934 21.9734 2.88001 22.4 2.88001C22.9974 2.88001 23.488 3.09334 23.872 3.52001C24.256 3.90401 24.4267 4.41601 24.384 5.05601C24.384 5.22667 24.2774 5.29067 24.064 5.24801C23.8934 5.20534 23.8294 5.09867 23.872 4.92801C23.9147 4.45867 23.7867 4.09601 23.488 3.84001C23.232 3.54134 22.8694 3.39201 22.4 3.39201C21.632 3.39201 21.1627 3.75467 20.992 4.48001C20.9494 4.60801 20.864 4.67201 20.736 4.67201C20.608 4.62934 20.5654 4.52267 20.608 4.35201ZM22.336 59.456C22.336 59.328 22.4 59.264 22.528 59.264C22.6987 59.264 22.8054 59.328 22.848 59.456C23.104 60.1813 23.5947 60.544 24.32 60.544C24.8747 60.544 25.344 60.288 25.728 59.776C25.8134 59.648 25.92 59.6267 26.048 59.712C26.176 59.7973 26.1974 59.904 26.112 60.032C25.6 60.672 24.9814 60.992 24.256 60.992C23.8294 60.992 23.4454 60.864 23.104 60.608C22.7627 60.352 22.5067 60.0107 22.336 59.584V59.456ZM24.256 59.392C24.0854 59.392 24 59.3067 24 59.136C24 58.9653 24.1067 58.88 24.32 58.88C24.4054 58.8373 24.448 58.7733 24.448 58.688C24.448 58.56 24.4054 58.496 24.32 58.496C24.1494 58.496 24.064 58.4107 24.064 58.24C24.064 58.0693 24.1494 57.984 24.32 57.984C24.4907 57.984 24.64 58.048 24.768 58.176C24.896 58.3467 24.96 58.5173 24.96 58.688C24.96 58.9013 24.896 59.072 24.768 59.2C24.64 59.328 24.4694 59.392 24.256 59.392ZM25.536 4.60801C25.8774 4.01067 26.368 3.54134 27.008 3.20001C27.648 2.81601 28.3094 2.62401 28.992 2.62401C30.144 2.62401 31.1254 3.05067 31.936 3.90401C32.7467 4.75734 33.152 5.84534 33.152 7.16801C33.152 8.27734 32.832 9.23734 32.192 10.048C31.552 10.816 30.7414 11.3067 29.76 11.52C29.5894 11.5627 29.4827 11.52 29.44 11.392C29.44 11.2213 29.504 11.136 29.632 11.136C30.4854 10.9653 31.1894 10.496 31.744 9.72801C32.3414 8.96001 32.64 8.10667 32.64 7.16801C32.64 6.01601 32.2987 5.05601 31.616 4.28801C30.9334 3.52001 30.0587 3.13601 28.992 3.13601C28.4374 3.13601 27.8827 3.30667 27.328 3.64801C26.7734 3.98934 26.3467 4.39467 26.048 4.86401C25.9627 5.03467 25.8347 5.07734 25.664 4.99201C25.4934 4.86401 25.4507 4.73601 25.536 4.60801ZM26.752 57.92C26.752 57.1947 26.9654 56.5973 27.392 56.128C27.8187 55.6587 28.352 55.424 28.992 55.424C29.504 55.424 29.9094 55.552 30.208 55.808C30.5067 56.1067 30.656 56.4693 30.656 56.896C30.656 57.7067 30.3787 58.24 29.824 58.496H29.696C29.4827 58.496 29.3334 58.368 29.248 58.112C29.1627 57.8987 29.2267 57.728 29.44 57.6C29.9094 57.4293 30.144 57.1947 30.144 56.896C30.144 56.5973 30.016 56.3627 29.76 56.192C29.5467 56.0213 29.2907 55.936 28.992 55.936C28.48 55.936 28.0534 56.128 27.712 56.512C27.4134 56.896 27.264 57.3653 27.264 57.92C27.264 58.6027 27.4987 59.1573 27.968 59.584C28.4374 60.0107 29.0134 60.224 29.696 60.224C30.592 60.224 31.3174 59.8187 31.872 59.008C32.4694 58.1973 32.768 57.216 32.768 56.064C32.768 54.784 32.4054 53.632 31.68 52.608C30.9547 51.584 30.0374 50.9227 28.928 50.624C28.7574 50.5813 28.6934 50.496 28.736 50.368C28.8214 50.1973 28.928 50.1547 29.056 50.24C30.2934 50.5387 31.296 51.2213 32.064 52.288C32.8747 53.3973 33.28 54.656 33.28 56.064C33.28 57.472 32.9387 58.6027 32.256 59.456C31.5734 60.3093 30.72 60.736 29.696 60.736C28.8427 60.736 28.1387 60.4587 27.584 59.904C27.0294 59.392 26.752 58.7307 26.752 57.92ZM28.736 34.368C28.736 33.8133 28.8854 33.3653 29.184 33.024C29.5254 32.6827 29.9307 32.512 30.4 32.512C30.7414 32.512 31.0187 32.6187 31.232 32.832C31.4454 33.0453 31.552 33.3013 31.552 33.6C31.552 33.8987 31.488 34.176 31.36 34.432C31.232 34.688 31.0187 34.816 30.72 34.816C30.5494 34.816 30.4214 34.7733 30.336 34.688C30.2507 34.56 30.208 34.432 30.208 34.304C30.208 34.048 30.336 33.92 30.592 33.92C30.6347 33.92 30.72 33.9413 30.848 33.984C30.976 33.984 31.04 33.856 31.04 33.6C31.04 33.216 30.8267 33.024 30.4 33.024C30.0587 33.024 29.7814 33.152 29.568 33.408C29.3547 33.664 29.248 33.984 29.248 34.368C29.248 34.9227 29.3974 35.3707 29.696 35.712C30.0374 36.0107 30.464 36.16 30.976 36.16C31.5734 36.16 32.064 35.8613 32.448 35.264C32.832 34.624 33.024 33.8773 33.024 33.024C33.024 31.7867 32.64 30.6347 31.872 29.568C31.1467 28.4587 30.2507 27.7547 29.184 27.456C29.0134 27.4133 28.9494 27.328 28.992 27.2C29.0774 27.0293 29.184 26.9867 29.312 27.072C30.5494 27.4133 31.552 28.1387 32.32 29.248C33.1307 30.3573 33.536 31.616 33.536 33.024C33.536 34.1333 33.28 35.0293 32.768 35.712C32.2987 36.352 31.7014 36.672 30.976 36.672C30.336 36.672 29.8027 36.4587 29.376 36.032C28.9494 35.6053 28.736 35.0507 28.736 34.368ZM28.736 20.8C28.736 19.3493 29.1627 18.0907 30.016 17.024C30.8694 15.9573 31.9574 15.2747 33.28 14.976C33.4507 14.9333 33.536 14.976 33.536 15.104C33.5787 15.232 33.536 15.3173 33.408 15.36C32.2134 15.6587 31.2107 16.3413 30.4 17.408C29.632 18.432 29.248 19.5627 29.248 20.8C29.248 21.696 29.44 22.4853 29.824 23.168C30.208 23.808 30.7414 24.128 31.424 24.128C31.8934 24.128 32.2987 23.9787 32.64 23.68C32.9814 23.3387 33.152 22.9333 33.152 22.464C33.152 22.08 33.0454 21.76 32.832 21.504C32.6614 21.2053 32.384 21.056 32 21.056C31.8294 21.056 31.6587 21.12 31.488 21.248C31.3174 21.3333 31.232 21.4613 31.232 21.632C31.232 21.6747 31.3814 21.8027 31.68 22.016C31.8507 22.144 31.936 22.272 31.936 22.4C31.936 22.5707 31.872 22.6987 31.744 22.784C31.616 22.8693 31.4667 22.8693 31.296 22.784C30.912 22.5707 30.72 22.1867 30.72 21.632C30.72 21.2907 30.8267 21.0347 31.04 20.864C31.2534 20.6507 31.5734 20.544 32 20.544C32.4694 20.544 32.8534 20.7147 33.152 21.056C33.4934 21.3973 33.664 21.8667 33.664 22.464C33.664 23.0613 33.4507 23.5733 33.024 24C32.64 24.4267 32.1067 24.64 31.424 24.64C30.6987 24.64 30.0587 24.2987 29.504 23.616C28.992 22.8907 28.736 21.952 28.736 20.8ZM28.8 45.376C28.8 44.0533 29.2267 42.9227 30.08 41.984C30.9334 41.0027 32.0214 40.384 33.344 40.128C33.5147 40.0853 33.6 40.1493 33.6 40.32C33.6427 40.448 33.6 40.512 33.472 40.512C32.2774 40.768 31.2747 41.3653 30.464 42.304C29.696 43.2427 29.312 44.2667 29.312 45.376C29.312 46.144 29.504 46.8053 29.888 47.36C30.272 47.872 30.784 48.128 31.424 48.128C31.936 48.128 32.3627 47.9787 32.704 47.68C33.0454 47.3387 33.216 46.912 33.216 46.4C33.216 46.016 33.1094 45.6747 32.896 45.376C32.6827 45.0773 32.384 44.928 32 44.928C31.8294 44.928 31.6587 44.992 31.488 45.12C31.36 45.2053 31.296 45.3333 31.296 45.504C31.296 45.632 31.3814 45.7173 31.552 45.76C31.7227 45.8027 31.8294 45.824 31.872 45.824C32.1707 45.824 32.32 45.9947 32.32 46.336C32.32 46.592 32.1707 46.72 31.872 46.72C31.488 46.6773 31.2107 46.5493 31.04 46.336C30.8694 46.08 30.784 45.8027 30.784 45.504C30.784 44.7787 31.1894 44.416 32 44.416C32.4694 44.416 32.8747 44.608 33.216 44.992C33.5574 45.3333 33.728 45.8027 33.728 46.4C33.728 47.04 33.5147 47.5733 33.088 48C32.6614 48.4267 32.1067 48.64 31.424 48.64C30.6987 48.64 30.08 48.3413 29.568 47.744C29.056 47.1467 28.8 46.3573 28.8 45.376ZM28.928 37.76C28.928 37.5893 29.0134 37.5253 29.184 37.568C29.3974 37.6107 29.4827 37.7173 29.44 37.888C29.3974 38.4 29.4827 38.8053 29.696 39.104C29.952 39.4027 30.3147 39.552 30.784 39.552C31.2534 39.552 31.6587 39.4027 32 39.104C32.0854 39.0187 32.1707 39.04 32.256 39.168C32.384 39.296 32.384 39.4027 32.256 39.488C31.7867 39.872 31.296 40.064 30.784 40.064C30.1867 40.064 29.7174 39.8507 29.376 39.424C29.0347 38.9547 28.8854 38.4 28.928 37.76ZM28.928 14.08C28.8427 13.9947 28.864 13.9093 28.992 13.824C29.12 13.696 29.2267 13.696 29.312 13.824C29.568 14.1227 29.9094 14.272 30.336 14.272C30.6774 14.272 30.9547 14.144 31.168 13.888C31.424 13.632 31.5094 13.2693 31.424 12.8V12.736C31.424 12.608 31.488 12.544 31.616 12.544C31.7867 12.544 31.8934 12.6293 31.936 12.8C32.064 13.44 31.9574 13.9307 31.616 14.272C31.3174 14.6133 30.912 14.784 30.4 14.784C29.8027 14.784 29.312 14.5493 28.928 14.08Z"/>
</svg>
