<svg xmlns="http://www.w3.org/2000/svg" width="224" height="32" viewBox="0 0 224 32"><g transform="translate(0 0)"><g fill="none" class="nc-icon-wrapper"><path d="M13.392 10.4362L14.8106 9.0176C14.1031 8.38476 13.169 8 12.145 8C9.93588 8 8.14502 9.79086 8.14502 12C8.14502 14.2091 9.93588 16 12.145 16C13.2563 16 14.2617 15.5468 14.9866 14.8152L13.674 13.5026L13.4646 13.503C13.1124 13.8124 12.6506 14 12.145 14C11.0405 14 10.145 13.1046 10.145 12C10.145 10.8954 11.0405 10 12.145 10C12.6166 10 13.0501 10.1632 13.392 10.4362Z" fill="#212121"></path><path fill-rule="evenodd" clip-rule="evenodd" d="M12 3C16.9706 3 21 7.02944 21 12C21 16.9706 16.9706 21 12 21C7.02944 21 3 16.9706 3 12C3 7.02944 7.02944 3 12 3ZM12 5C15.866 5 19 8.13401 19 12C19 15.866 15.866 19 12 19C8.13401 19 5 15.866 5 12C5 8.13401 8.13401 5 12 5Z" fill="#212121"></path></g></g><g transform="translate(24 0)"><g fill="none" class="nc-icon-wrapper"><path d="M11.0001 3.67157L13.0001 3.67157L13.0001 16.4999L16.2426 13.2574L17.6568 14.6716L12 20.3284L6.34314 14.6716L7.75735 13.2574L11.0001 16.5001L11.0001 3.67157Z" fill="#212121"></path></g></g><g transform="translate(48 0)"><g fill="none" class="nc-icon-wrapper"><path d="M13.325 3.05011L8.66741 20.4323L10.5993 20.9499L15.2568 3.56775L13.325 3.05011Z" fill="#212121"></path><path d="M7.61197 18.3608L8.97136 16.9124L8.97086 16.8933L3.87657 12.1121L8.66699 7.00798L7.20868 5.63928L1.04956 12.2017L7.61197 18.3608Z" fill="#212121"></path><path d="M16.388 18.3608L15.0286 16.9124L15.0291 16.8933L20.1234 12.1121L15.333 7.00798L16.7913 5.63928L22.9504 12.2017L16.388 18.3608Z" fill="#212121"></path></g></g><g transform="translate(72 0)"><g fill="none" class="nc-icon-wrapper"><path fill-rule="evenodd" clip-rule="evenodd" d="M11 4C11 3.44772 11.4477 3 12 3C12.5523 3 13 3.44772 13 4V9.17071C14.1652 9.58254 15 10.6938 15 12C15 13.3062 14.1652 14.4175 13 14.8293V20C13 20.5523 12.5523 21 12 21C11.4477 21 11 20.5523 11 20V14.8293C9.83481 14.4175 9 13.3062 9 12C9 10.6938 9.83481 9.58254 11 9.17071V4ZM12 13C12.5523 13 13 12.5523 13 12C13 11.4477 12.5523 11 12 11C11.4477 11 11 11.4477 11 12C11 12.5523 11.4477 13 12 13Z" fill="#212121"></path></g></g><g transform="translate(96 0)"><g fill="none" class="nc-icon-wrapper"><path d="M9 7H11V12H16V14H9V7Z" fill="#212121"></path><path fill-rule="evenodd" clip-rule="evenodd" d="M22 12C22 17.5228 17.5228 22 12 22C6.47715 22 2 17.5228 2 12C2 6.47715 6.47715 2 12 2C17.5228 2 22 6.47715 22 12ZM20 12C20 16.4183 16.4183 20 12 20C7.58172 20 4 16.4183 4 12C4 7.58172 7.58172 4 12 4C16.4183 4 20 7.58172 20 12Z" fill="#212121"></path></g></g><g transform="translate(120 0)"><g fill="none" class="nc-icon-wrapper"><path d="M15 17C16.1046 17 17 16.1046 17 15C17 13.8954 16.1046 13 15 13C13.8954 13 13 13.8954 13 15C13 16.1046 13.8954 17 15 17Z" fill="#212121"></path><path fill-rule="evenodd" clip-rule="evenodd" d="M6 3C4.34315 3 3 4.34315 3 6V18C3 19.6569 4.34315 21 6 21H18C19.6569 21 21 19.6569 21 18V6C21 4.34315 19.6569 3 18 3H6ZM5 18V7H19V18C19 18.5523 18.5523 19 18 19H6C5.44772 19 5 18.5523 5 18Z" fill="#212121"></path></g></g><g transform="translate(144 0)"><g fill="none" class="nc-icon-wrapper"><path d="M15.0378 6.34317L13.6269 7.76069L16.8972 11.0157L3.29211 11.0293L3.29413 13.0293L16.8619 13.0157L13.6467 16.2459L15.0643 17.6568L20.7079 11.9868L15.0378 6.34317Z" fill="#212121"></path></g></g><g transform="translate(168 0)"><g fill="none" class="nc-icon-wrapper"><path fill-rule="evenodd" clip-rule="evenodd" d="M3.00977 5.83789C3.00977 5.28561 3.45748 4.83789 4.00977 4.83789H20C20.5523 4.83789 21 5.28561 21 5.83789V17.1621C21 18.2667 20.1046 19.1621 19 19.1621H5C3.89543 19.1621 3 18.2667 3 17.1621V6.16211C3 6.11449 3.00333 6.06765 3.00977 6.0218V5.83789ZM5 8.06165V17.1621H19V8.06199L14.1215 12.9405C12.9499 14.1121 11.0504 14.1121 9.87885 12.9405L5 8.06165ZM6.57232 6.80554H17.428L12.7073 11.5263C12.3168 11.9168 11.6836 11.9168 11.2931 11.5263L6.57232 6.80554Z" fill="#212121"></path></g></g><g transform="translate(192 0)"><g class="nc-icon-wrapper" fill="#212121"><defs></defs><path d="M10,14a4,4,0,1,1,4-4A4.0045,4.0045,0,0,1,10,14Zm0-6a2,2,0,1,0,1.998,2.0044A2.002,2.002,0,0,0,10,8Z"></path><path d="M16.6436,29.4145,2.5858,15.3555A2,2,0,0,1,2,13.9414V4A2,2,0,0,1,4,2h9.9413a2,2,0,0,1,1.4142.5858L29.4144,16.6436a2.0005,2.0005,0,0,1,0,2.8285l-9.9424,9.9425a2.0008,2.0008,0,0,1-2.8285,0ZM4,4v9.9417L18.0578,28,28,18.0579,13.9416,4Z"></path><path id="1734287380878-6572675__Transparent_Rectangle_" data-name="Transparent Rectangle" class="cls-1" d="M0 0H32V32H0z" fill="none"></path></g></g></svg>
