<svg width="32" height="32" viewBox="0 0 32 32" fill="none" xmlns="http://www.w3.org/2000/svg">
<path d="M1 1H31V31H1V1Z" fill="#0B0B0B"/>
<path fill-rule="evenodd" clip-rule="evenodd" d="M31.8886 0C31.9629 0 32 0.0427718 32 0.128315V31.8717C32 31.9573 31.9629 32 31.8886 32H0.111394C0.0371404 32 0 31.9573 0 31.8717V0.128315C2.04725e-05 0.0428004 0.0371608 2.85843e-05 0.111394 0H31.8886ZM0.222789 31.7434H31.7772V0.256631H0.222789V31.7434Z" fill="#0B0B0B"/>
<path d="M7.6206 29C6.34868 29 5.25564 28.7448 4.34146 28.2344C3.44715 27.7444 3 27.04 3 26.1213C3 25.713 3.11924 25.3863 3.35772 25.1413C3.59621 24.8963 3.85456 24.7739 4.13279 24.7739C4.47064 24.7739 4.73893 24.8759 4.93767 25.0801C5.15627 25.3047 5.39476 25.6211 5.65311 26.0294C5.97107 26.5399 6.27914 26.9277 6.57725 27.1932C6.89519 27.479 7.31253 27.6219 7.82928 27.6219C9.06142 27.6219 9.67751 26.3357 9.67751 23.7633V8.87985C10.6314 8.57361 11.476 8.12444 12.2114 7.53239C12.9666 6.94033 13.5628 6.22574 14 5.38869V23.0283C14 24.2532 13.6919 25.3149 13.0759 26.2132C12.4598 27.1319 11.6549 27.8261 10.6613 28.2956C9.68743 28.7652 8.67389 29 7.6206 29ZM3.05962 8.23675C3.05962 7.42008 3.30804 6.62385 3.80488 5.84805C4.32159 5.05182 4.98735 4.40871 5.80218 3.91872C6.63687 3.42873 7.51128 3.18374 8.42548 3.18374C8.96207 3.18374 9.66754 3.26541 10.542 3.42874C11.2773 3.57165 11.8537 3.64311 12.271 3.64311C12.9666 3.64311 13.4833 3.42873 13.8211 3L13.9702 3.09187C13.6125 4.50058 12.9467 5.68474 11.9729 6.64428C10.9991 7.58344 9.90603 8.053 8.69377 8.053C8.17703 8.053 7.57091 7.92031 6.87535 7.65488C6.31887 7.45071 5.90153 7.34864 5.6233 7.34864C5.26558 7.34864 4.98735 7.44051 4.78862 7.62426C4.60975 7.78757 4.52032 7.98156 4.52032 8.20612C4.52032 8.4103 4.57994 8.57361 4.69918 8.69611C4.8383 8.79817 5.03703 8.92067 5.29539 9.0636C5.61337 9.22691 5.85183 9.40047 6.01085 9.58421C6.16982 9.74753 6.24933 9.98233 6.24933 10.2886C6.24933 10.5948 6.14993 10.8602 5.95123 11.0848C5.77237 11.289 5.53387 11.391 5.23577 11.391C4.89792 11.391 4.56007 11.2584 4.22222 10.9929C3.88437 10.7071 3.60614 10.3294 3.38753 9.85983C3.16893 9.36984 3.05962 8.8288 3.05962 8.23675Z" fill="#FBF8EF"/>
<path d="M21.8921 28C19.8345 26.4564 17.8705 25.1005 16 23.9324L18.9928 19.9274C20.801 21.0747 22.5676 22.368 24.2926 23.8073C24.6667 23.4944 24.9577 23.1398 25.1655 22.7434C25.3733 22.3471 25.4772 21.9612 25.4772 21.5857C25.4772 20.9182 25.1655 20.3133 24.542 19.771L18.3693 14.5457C16.9561 13.3358 16.2494 12.0009 16.2494 10.5407C16.2494 9.22653 16.8417 7.91239 18.0264 6.59825C19.211 5.2841 20.9465 4.08469 23.2326 3C24.4589 4.00125 25.9968 5.03379 27.8465 6.09762L25.0408 9.82103C23.3989 8.94493 21.8297 7.8811 20.3333 6.62954C19.8553 7.08846 19.6163 7.5578 19.6163 8.03755C19.6163 8.6842 20.032 9.37257 20.8633 10.1026L26.9113 15.2028C28.3038 16.3709 29 17.6955 29 19.1765C29 20.428 28.4493 21.7943 27.3477 23.2753C26.2462 24.7563 24.4277 26.3313 21.8921 28Z" fill="#FBF8EF"/>
</svg>
