<svg width="122" height="122" viewBox="0 0 122 122" fill="none" xmlns="http://www.w3.org/2000/svg">
<path d="M79.8398 60.667C66.0518 60.667 54.8398 71.88 54.8398 85.667C54.8398 99.455 66.0518 110.667 79.8398 110.667C93.6268 110.667 104.84 99.455 104.84 85.667C104.84 71.88 93.6268 60.667 79.8398 60.667ZM79.8398 119.001C61.4608 119.001 46.5059 104.047 46.5059 85.667C46.5059 67.288 61.4608 52.334 79.8398 52.334C98.2188 52.334 113.173 67.288 113.173 85.667C113.173 104.047 98.2188 119.001 79.8398 119.001Z" fill="black"/>
<path d="M86.45 98.167L75.6748 87.392V69.001H84.0078V83.942L92.3408 92.276L86.45 98.167Z" fill="black"/>
<path d="M109 19.001C109 14.397 105.271 10.667 100.667 10.667H84V2.33398H75.667V10.667H42.334V2.33398H34V10.667H17.334C12.729 10.667 9 14.397 9 19.001V102.334C9 106.938 12.729 110.667 17.334 110.667H34V102.334H17.334V19.001H34V27.334H42.334V19.001H75.667V27.334H84V19.001H100.667V44.001H109V19.001Z" fill="black"/>
</svg>
