<svg width="117" height="119" viewBox="0 0 117 119" fill="none" xmlns="http://www.w3.org/2000/svg">
<path d="M76.8398 59.001C63.0518 59.001 51.8398 70.214 51.8398 84.001C51.8398 97.789 63.0518 109.001 76.8398 109.001C90.6268 109.001 101.84 97.789 101.84 84.001C101.84 70.214 90.6268 59.001 76.8398 59.001ZM76.8398 117.335C58.4608 117.335 43.5059 102.381 43.5059 84.001C43.5059 65.622 58.4608 50.668 76.8398 50.668C95.2188 50.668 110.173 65.622 110.173 84.001C110.173 102.381 95.2188 117.335 76.8398 117.335Z" fill="black"/>
<path d="M83.45 96.501L72.6748 85.726V67.335H81.0078V82.276L89.3408 90.6099L83.45 96.501Z" fill="black"/>
<path d="M106 17.335C106 12.731 102.271 9.00096 97.667 9.00096H81V0.667969H72.667V9.00096H39.334V0.667969H31V9.00096H14.334C9.72898 9.00096 6 12.731 6 17.335V100.668C6 105.272 9.72898 109.001 14.334 109.001H31V100.668H14.334V17.335H31V25.668H39.334V17.335H72.667V25.668H81V17.335H97.667V42.335H106V17.335Z" fill="black"/>
</svg>
