<svg width="122" height="122" viewBox="0 0 122 122" fill="none" xmlns="http://www.w3.org/2000/svg">
<path d="M16.267 60.933C16.267 65.4265 12.6265 69.066 8.13302 69.066C3.63951 69.066 0 65.4265 0 60.933C0 56.4395 3.63951 52.8 8.13302 52.8C12.6265 52.8 16.267 56.4395 16.267 60.933Z" fill="black"/>
<path d="M85.4 20.266C85.4 24.7595 81.7605 28.4 77.267 28.4C72.7725 28.4 69.133 24.7595 69.133 20.266C69.133 15.7725 72.7725 12.133 77.267 12.133C81.7605 12.133 85.4 15.7725 85.4 20.266Z" fill="black"/>
<path d="M85.4 101.6C85.4 106.094 81.7605 109.733 77.267 109.733C72.7725 109.733 69.133 106.094 69.133 101.6C69.133 97.1056 72.7725 93.466 77.267 93.466C81.7605 93.466 85.4 97.1056 85.4 101.6Z" fill="black"/>
<path d="M105.733 69.066C101.247 69.066 97.6 65.4187 97.6 60.933C97.6 56.4473 101.247 52.8 105.733 52.8C110.219 52.8 113.867 56.4473 113.867 60.933C113.867 65.4187 110.219 69.066 105.733 69.066ZM56.933 69.066C52.4473 69.066 48.8 65.4187 48.8 60.933C48.8 56.4473 52.4473 52.8 56.933 52.8C61.4187 52.8 65.067 56.4473 65.067 60.933C65.067 65.4187 61.4187 69.066 56.933 69.066ZM24.4 109.733C19.9143 109.733 16.267 106.085 16.267 101.6C16.267 97.1143 19.9143 93.466 24.4 93.466C28.8857 93.466 32.533 97.1143 32.533 101.6C32.533 106.085 28.8857 109.733 24.4 109.733ZM16.267 20.266C16.267 15.7803 19.9143 12.133 24.4 12.133C28.8857 12.133 32.533 15.7803 32.533 20.266C32.533 24.7517 28.8857 28.4 24.4 28.4C19.9143 28.4 16.267 24.7517 16.267 20.266ZM105.733 44.666C98.1778 44.666 91.8621 49.872 90.0438 56.866H72.6222C70.8049 49.872 64.4892 44.666 56.933 44.666C54.5623 44.666 52.3214 45.2028 50.2884 46.1183L37.373 29.9733C39.4138 27.2571 40.667 23.9182 40.667 20.266C40.667 11.2956 33.3714 4 24.4 4C15.4286 4 8.13302 11.2956 8.13302 20.266C8.13302 29.2374 15.4286 36.533 24.4 36.533C26.7707 36.533 29.0116 35.9962 31.0447 35.0807L43.961 51.2257C41.9192 53.9419 40.667 57.2808 40.667 60.933C40.667 64.5852 41.9192 67.9231 43.961 70.6403L31.0447 86.7844C29.0116 85.8698 26.7707 85.333 24.4 85.333C15.4286 85.333 8.13302 92.6286 8.13302 101.6C8.13302 110.57 15.4286 117.866 24.4 117.866C33.3714 117.866 40.667 110.57 40.667 101.6C40.667 97.9478 39.4138 94.6089 37.373 91.8927L50.2884 75.7477C52.3214 76.6632 54.5623 77.2 56.933 77.2C64.4892 77.2 70.8049 71.994 72.6222 65H90.0438C91.8621 71.994 98.1778 77.2 105.733 77.2C114.704 77.2 122 69.9044 122 60.933C122 51.9616 114.704 44.666 105.733 44.666Z" fill="black"/>
</svg>
