<svg width="126" height="117" viewBox="0 0 126 117" fill="none" xmlns="http://www.w3.org/2000/svg">
<path d="M17.5015 58.334C17.5015 62.938 13.7715 66.667 9.16748 66.667C4.56348 66.667 0.834473 62.938 0.834473 58.334C0.834473 53.73 4.56348 50.001 9.16748 50.001C13.7715 50.001 17.5015 53.73 17.5015 58.334Z" fill="black"/>
<path d="M88.3345 16.667C88.3345 21.271 84.6055 25.001 80.0015 25.001C75.3965 25.001 71.6675 21.271 71.6675 16.667C71.6675 12.063 75.3965 8.33398 80.0015 8.33398C84.6055 8.33398 88.3345 12.063 88.3345 16.667Z" fill="black"/>
<path d="M88.3345 100.001C88.3345 104.605 84.6055 108.334 80.0015 108.334C75.3965 108.334 71.6675 104.605 71.6675 100.001C71.6675 95.396 75.3965 91.667 80.0015 91.667C84.6055 91.667 88.3345 95.396 88.3345 100.001Z" fill="black"/>
<path d="M109.167 66.667C104.571 66.667 100.834 62.93 100.834 58.334C100.834 53.738 104.571 50.001 109.167 50.001C113.763 50.001 117.501 53.738 117.501 58.334C117.501 62.93 113.763 66.667 109.167 66.667ZM59.1675 66.667C54.5715 66.667 50.8345 62.93 50.8345 58.334C50.8345 53.738 54.5715 50.001 59.1675 50.001C63.7635 50.001 67.5015 53.738 67.5015 58.334C67.5015 62.93 63.7635 66.667 59.1675 66.667ZM25.8345 108.334C21.2385 108.334 17.5015 104.596 17.5015 100.001C17.5015 95.405 21.2385 91.667 25.8345 91.667C30.4305 91.667 34.1675 95.405 34.1675 100.001C34.1675 104.596 30.4305 108.334 25.8345 108.334ZM17.5015 16.667C17.5015 12.071 21.2385 8.33398 25.8345 8.33398C30.4305 8.33398 34.1675 12.071 34.1675 16.667C34.1675 21.263 30.4305 25.001 25.8345 25.001C21.2385 25.001 17.5015 21.263 17.5015 16.667ZM109.167 41.667C101.426 41.667 94.9555 47.001 93.0925 54.167H75.2425C73.3805 47.001 66.9095 41.667 59.1675 41.667C56.7385 41.667 54.4425 42.217 52.3595 43.155L39.1265 26.613C41.2175 23.83 42.5015 20.409 42.5015 16.667C42.5015 7.47599 35.0265 0.000976562 25.8345 0.000976562C16.6425 0.000976562 9.16748 7.47599 9.16748 16.667C9.16748 25.859 16.6425 33.334 25.8345 33.334C28.2635 33.334 30.5595 32.784 32.6425 31.846L45.8765 48.388C43.7845 51.171 42.5015 54.592 42.5015 58.334C42.5015 62.076 43.7845 65.496 45.8765 68.28L32.6425 84.821C30.5595 83.884 28.2635 83.334 25.8345 83.334C16.6425 83.334 9.16748 90.809 9.16748 100.001C9.16748 109.192 16.6425 116.667 25.8345 116.667C35.0265 116.667 42.5015 109.192 42.5015 100.001C42.5015 96.259 41.2175 92.838 39.1265 90.055L52.3595 73.513C54.4425 74.451 56.7385 75.001 59.1675 75.001C66.9095 75.001 73.3805 69.667 75.2425 62.501H93.0925C94.9555 69.667 101.426 75.001 109.167 75.001C118.359 75.001 125.834 67.526 125.834 58.334C125.834 49.142 118.359 41.667 109.167 41.667Z" fill="black"/>
</svg>
