<?xml version="1.0" encoding="UTF-8" standalone="no"?>
<!DOCTYPE svg PUBLIC "-//W3C//DTD SVG 1.1//EN" "http://www.w3.org/Graphics/SVG/1.1/DTD/svg11.dtd">
<svg width="100%" height="100%" viewBox="0 0 32 32" version="1.1" xmlns="http://www.w3.org/2000/svg" xmlns:xlink="http://www.w3.org/1999/xlink" xml:space="preserve" xmlns:serif="http://www.serif.com/" style="fill-rule:evenodd;clip-rule:evenodd;stroke-linejoin:round;stroke-miterlimit:2;">
    <path d="M26,28L6,28C4.903,27.999 4.001,27.097 4,26L4,6C4.001,4.903 4.903,4.001 6,4L16,4L16,6L6,6L6,26L26,26L26,16L28,16L28,26C27.999,27.097 27.097,27.999 26,28Z" style="fill:rgb(93,89,84);fill-rule:nonzero;"/>
    <path d="M20,2L20,4L26.586,4L18,12.586L19.414,14L28,5.414L28,12L30,12L30,2L20,2Z" style="fill:rgb(93,89,84);fill-rule:nonzero;"/>
</svg>
