<svg class="icon toc" xmlns="http://www.w3.org/2000/svg" viewBox="0 0 32 32"><title>panel-expansion</title>
<path class="small-outer" d="M12 6H6C5.46957 6 4.96086 6.21071 4.58579 6.58579C4.21071 6.96086 4 7.46957 4 8V14C4 14.5304 4.21071 15.0391 4.58579 15.4142C4.96086 15.7893 5.46957 16 6 16H12C12.5304 16 13.0391 15.7893 13.4142 15.4142C13.7893 15.0391 14 14.5304 14 14V8C14 7.46957 13.7893 6.96086 13.4142 6.58579C13.0391 6.21071 12.5304 6 12 6ZM6 14V8H12V14H6Z"/>
<path class="small-inner" d="M6 8V14H12V8H6Z" />
<path class="large-outer" d="M26 6H20C19.4696 6 18.9609 6.21071 18.5858 6.58579C18.2107 6.96086 18 7.46957 18 8V24C18 24.5304 18.2107 25.0391 18.5858 25.4142C18.9609 25.7893 19.4696 26 20 26H26C26.5304 26 27.0391 25.7893 27.4142 25.4142C27.7893 25.0391 28 24.5304 28 24V8C28 7.46957 27.7893 6.96086 27.4142 6.58579C27.0391 6.21071 26.5304 6 26 6ZM20 24V8H26V24H20Z" />
<path class="large-inner" d="M20 8V24H26V8H20Z"/>
</svg>
