<svg width="117" height="117" viewBox="0 0 117 117" fill="none" xmlns="http://www.w3.org/2000/svg">
<path d="M84.5539 38.7217C83.7749 39.5017 83.3339 40.5637 83.3339 41.6677V53.7717C83.3339 69.6887 73.2419 83.9097 58.2209 89.1677L20.0209 102.539L58.3339 64.2268L52.4419 58.3347L14.129 96.6467L27.4999 58.4467C32.7589 43.4267 46.9789 33.3347 62.8959 33.3347H74.9999C76.1039 33.3347 77.1669 32.8967 77.9459 32.1137L99.9999 10.0598L106.609 16.6677L84.5539 38.7217ZM115.446 13.7218L102.946 1.22175C101.317 -0.40725 98.6839 -0.40725 97.0539 1.22175L73.275 25.0018H62.8959C43.4459 25.0018 26.0589 37.3347 19.6339 55.6927L0.23394 111.127C-0.29606 112.635 0.0919392 114.318 1.22094 115.447C2.01294 116.243 3.07892 116.668 4.16692 116.668C4.62892 116.668 5.09195 116.589 5.54595 116.435L60.9749 97.0347C79.3339 90.6097 91.6669 73.2217 91.6669 53.7717V43.3928L115.446 19.6137C117.075 17.9847 117.075 15.3518 115.446 13.7218Z" fill="black"/>
</svg>
