<svg class="icon" width="122" height="122" viewBox="0 0 122 122" fill="none" xmlns="http://www.w3.org/2000/svg">
<path d="M87.5539 41.7217C86.7749 42.5017 86.3339 43.5637 86.3339 44.6677V56.7717C86.3339 72.6887 76.2419 86.9097 61.2209 92.1677L23.0209 105.539L61.3339 67.2268L55.4419 61.3347L17.129 99.6467L30.4999 61.4467C35.7589 46.4267 49.9789 36.3347 65.8959 36.3347H77.9999C79.1039 36.3347 80.1669 35.8967 80.9459 35.1137L103 13.0598L109.609 19.6677L87.5539 41.7217ZM118.446 16.7218L105.946 4.22175C104.317 2.59275 101.684 2.59275 100.054 4.22175L76.275 28.0018H65.8959C46.4459 28.0018 29.0589 40.3347 22.6339 58.6927L3.23394 114.127C2.70394 115.635 3.09194 117.318 4.22094 118.447C5.01294 119.243 6.07892 119.668 7.16692 119.668C7.62892 119.668 8.09195 119.589 8.54595 119.435L63.9749 100.035C82.3339 93.6097 94.6669 76.2217 94.6669 56.7717V46.3928L118.446 22.6137C120.075 20.9847 120.075 18.3518 118.446 16.7218Z" fill="black"/>
</svg>
