<svg width="534" height="89" viewBox="0 0 534 89" fill="none" xmlns="http://www.w3.org/2000/svg">
<g clip-path="url(#clip0_27_41)">
<path d="M209.195 8.12692C209.195 3.63399 212.821 0 217.285 0C221.764 0 225.405 3.63399 225.405 8.12692C225.405 12.614 221.764 16.2519 217.285 16.2519C212.821 16.2519 209.195 12.614 209.195 8.12692Z" fill="#0B0503"/>
<path d="M337.09 62.1825C337.09 57.6877 340.714 54.0498 345.178 54.0498C349.656 54.0498 353.296 57.6877 353.296 62.1825C353.296 66.6658 349.656 70.3075 345.178 70.3075C340.714 70.3075 337.09 66.6658 337.09 62.1825Z" fill="#0B0503"/>
<path d="M76.1601 58.6699C69.179 58.6699 64.3277 53.1255 64.3277 45.2026C64.3277 37.2818 69.179 31.7412 76.1601 31.7412C83.1813 31.7412 88.0862 37.2818 88.0862 45.2026C88.0862 53.2506 83.2835 58.6699 76.1601 58.6699ZM76.1601 19.9052C61.3906 19.9052 50.672 30.5472 50.672 45.2026C50.672 59.8581 61.3906 70.4981 76.1601 70.4981C90.9849 70.4981 101.748 59.8581 101.748 45.2026C101.748 30.5472 90.9849 19.9052 76.1601 19.9052Z" fill="#0B0503"/>
<path d="M193.496 46.4679C192.922 45.3875 192.263 44.4727 191.562 43.7467L191.116 43.2729L191.585 42.8223C192.263 42.1078 192.957 41.2604 193.625 40.2783L206.659 20.9027H190.836L181.043 36.0588C180.489 36.8715 179.37 37.2818 177.694 37.2818H175.462V8.62762C175.462 2.89641 171.892 2.11646 168.035 2.11646H161.431L161.442 69.7529H175.462V49.4644H176.776C178.374 49.4644 179.462 49.6493 179.961 50.5179L187.695 65.1155C189.856 69.0769 192.009 69.7529 196.059 69.7529H206.803L198.801 56.5167L193.496 46.4679Z" fill="#0B0503"/>
<path d="M261.557 19.7974C254.426 19.7974 249.876 22.9653 247.326 25.6441L246.475 26.505L246.174 25.3341C245.425 22.4646 242.9 20.8854 239.101 20.8854H232.817L232.857 69.7356H246.781V47.2209C246.781 45.0197 247.067 43.1093 247.649 41.3664C249.199 36.0916 253.523 32.812 258.927 32.812C263.273 32.812 264.972 35.1056 264.972 41.0333V62.3096C264.972 67.3688 267.312 69.7356 272.375 69.7356H279.001L278.979 38.6665C278.979 26.322 272.958 19.7974 261.561 19.7974" fill="#0B0503"/>
<path d="M217.47 20.9066H210.87L210.915 58.6775H210.911V69.7471H217.956C218.045 69.7471 218.116 69.7567 218.204 69.7567L221.486 69.7471H224.752V69.7279H224.775L224.803 28.323C224.803 23.3274 222.414 20.9067 217.475 20.9067" fill="#0B0503"/>
<path d="M130.855 58.6699C123.874 58.6699 119.013 53.1255 119.013 45.2026C119.013 37.2818 123.874 31.7412 130.855 31.7412C137.861 31.7412 142.78 37.2818 142.78 45.2026C142.78 53.2506 137.979 58.6699 130.855 58.6699ZM130.855 19.9052C116.071 19.9052 105.35 30.5472 105.35 45.2026C105.35 59.8581 116.071 70.4981 130.855 70.4981C145.664 70.4981 156.445 59.8581 156.445 45.2026C156.445 30.5472 145.664 19.9052 130.855 19.9052Z" fill="#0B0503"/>
<path d="M429.329 58.6699C422.351 58.6699 417.487 53.1255 417.487 45.2026C417.487 37.2818 422.351 31.7412 429.329 31.7412C436.337 31.7412 441.257 37.2818 441.257 45.2026C441.257 53.2506 436.454 58.6699 429.329 58.6699ZM429.329 19.9052C414.548 19.9052 403.827 30.5472 403.827 45.2026C403.827 59.8581 414.548 70.4981 429.329 70.4981C444.14 70.4981 454.919 59.8581 454.919 45.2026C454.919 30.5472 444.14 19.9052 429.329 19.9052Z" fill="#0B0503"/>
<path d="M308.339 56.5206C300.727 56.5206 298.017 49.8785 298.017 43.6543C298.017 40.912 298.71 31.9742 307.608 31.9742C312.03 31.9742 317.922 33.2414 317.922 44.1146C317.922 54.3695 312.708 56.5206 308.339 56.5206ZM325.152 20.7757C322.509 20.7757 320.476 21.8291 319.457 23.753L319.072 24.5002L318.427 23.9398C316.179 21.9947 312.149 19.6876 305.605 19.6876C292.584 19.6876 283.818 29.4669 283.818 44.0202C283.818 58.5563 292.889 68.7149 305.867 68.7149C310.3 68.7149 313.803 67.6807 316.58 65.5777L317.655 64.7708V66.1285C317.655 72.6532 313.435 76.2525 305.786 76.2525C302.069 76.2525 298.685 75.3474 296.423 74.5269C293.468 73.6353 291.737 74.3729 290.539 77.3367L289.434 80.0714L287.87 84.0655L288.839 84.5816C293.734 87.1795 300.107 88.7298 305.867 88.7298C317.726 88.7298 331.572 82.6597 331.572 65.5777L331.623 20.7757H325.154" fill="#0B0503"/>
<path d="M24.3015 58.1094L12.9665 58.0981V44.5462C12.9665 41.6498 14.0892 40.1438 16.5713 39.7972H24.3015C29.8189 39.7972 33.3837 43.2771 33.3877 48.9062C33.3837 54.6837 29.9075 58.1056 24.3015 58.1094ZM12.9665 21.5517V17.9851C12.9665 14.8634 14.2874 13.3786 17.1861 13.1879H22.9863C27.9606 13.1879 30.94 16.1653 30.94 21.1454C30.94 24.9431 28.9005 29.3744 23.1692 29.3744H12.9665V21.5517ZM38.778 35.0767L36.7289 33.9251L38.5178 32.396C40.598 30.6069 44.0854 26.5858 44.0854 19.6375C44.0854 9.00698 35.8393 2.14532 23.0766 2.14532H8.51203V2.14105H6.85354C3.06973 2.27975 0.0423371 5.35714 0 9.16449V69.506H6.68419C6.70113 69.5102 6.70678 69.506 6.71242 69.5102L23.3645 69.506C37.5519 69.506 46.7092 61.7834 46.7092 49.8222C46.7092 43.3823 43.7495 37.8764 38.7752 35.0763" fill="#0B0503"/>
<path d="M517.121 19.9553C511.343 19.9553 505.758 22.661 502.173 27.1982L501.163 28.4769L500.372 27.046C497.793 22.3432 493.354 19.9553 487.182 19.9553C480.709 19.9553 476.368 23.5661 474.352 25.7134L473.033 27.1424L472.525 25.2627C471.789 22.557 469.38 21.0664 465.73 21.0664H459.878L459.821 69.7278H473.119V48.2473C473.119 46.3658 473.352 44.5035 473.824 42.5565C475.095 37.3665 478.583 31.7836 484.447 32.342C488.064 32.6887 489.829 35.4831 489.829 40.8811V69.7278H503.221V48.2473C503.221 45.8959 503.441 44.1357 503.971 42.3697C505.049 37.4147 508.691 32.3344 514.349 32.3344C518.443 32.3344 519.957 34.653 519.957 40.8811V62.6139C519.957 67.5304 522.15 69.7278 527.063 69.7278H533.322L533.333 38.6626C533.333 26.2527 527.87 19.9553 517.118 19.9553" fill="#0B0503"/>
<path d="M396.128 52.8327C396.088 52.8807 390.366 58.9144 382.832 58.9144C375.968 58.9144 369.033 54.7027 369.033 45.3009C369.033 37.1836 374.41 31.5101 382.106 31.5101C384.606 31.5101 387.448 32.4057 387.893 33.9116L387.958 34.1659C388.983 37.5803 392.086 37.7633 392.696 37.7633L399.981 37.7707V31.4021C399.981 23.0017 389.297 19.9551 382.106 19.9551C366.73 19.9551 355.574 30.6606 355.574 45.4027C355.574 60.1391 366.609 70.8292 381.825 70.8292C395.026 70.8292 402.205 62.1516 402.273 62.0648L402.656 61.595L396.886 52.0237L396.128 52.8327Z" fill="#0B0503"/>
</g>
<defs>
<clipPath id="clip0_27_41">
<rect width="533.333" height="88.6162" fill="white"/>
</clipPath>
</defs>
</svg>
